# xmcd
#
# Track frame offsets:
#	150
#	14853
#	31504
#	46896
#	62148
#	76756
#	91721
#	106922
#	122582
#	136979
#	151959
#	166665
#	182069
#	196931
#	212096
#	226959
#	242829
#	259110
#	273955
#	289519
#	305771
#
# Disc length: 4257 seconds
#
# Revision: 1
# Processed by: cddbd v1.5.2PL0 Copyright (c) Steve Scherf et al.
# Submitted via: EZCDAudioConverter 2.3.5.1
#
DISCID=11109f15
DTITLE=최신 트롯 베스트 - CD1
DYEAR=2015
DGENRE=Trot
TTITLE0=최진희 - 사랑은 어떻게 생겼을까
TTITLE1=김용임 - 사랑님
TTITLE2=배일호 - 늦기전에
TTITLE3=금잔디 - 여여
TTITLE4=김혜연 - 최고다 당신
TTITLE5=설운도 - 보고 싶다 내 사랑
TTITLE6=주현미 - 사랑이 오네
TTITLE7=추가열 - 소풍같은 인생
TTITLE8=조항조 - 사랑꽃
TTITLE9=강민 - 나 아직은
TTITLE10=최진희 - 와인
TTITLE11=금잔디 - 어쩔사
TTITLE12=강진 - 정들었어요
TTITLE13=윤향기 - 걱정을 말아요
TTITLE14=박구윤 - 너랑 나랑
TTITLE15=조항조&한수영 - 환상의 커플
TTITLE16=강민 - 세월아 청춘아
TTITLE17=신수아 - 타이밍
TTITLE18=민지 - 돈
TTITLE19=윤수현 - 천태만상
TTITLE20=Special Track - 일소일소 일노일노
EXTD=
EXTT0=
EXTT1=
EXTT2=
EXTT3=
EXTT4=
EXTT5=
EXTT6=
EXTT7=
EXTT8=
EXTT9=
EXTT10=
EXTT11=
EXTT12=
EXTT13=
EXTT14=
EXTT15=
EXTT16=
EXTT17=
EXTT18=
EXTT19=
EXTT20=
PLAYORDER=
